<?xml version="1.0" encoding="utf-8"?>
<!-- Generator: Adobe Illustrator 25.2.3, SVG Export Plug-In . SVG Version: 6.00 Build 0)  -->
<svg version="1.1" id="Layer_1" xmlns="http://www.w3.org/2000/svg" xmlns:xlink="http://www.w3.org/1999/xlink" x="0px" y="0px"
	 viewBox="0 0 155 144" style="enable-background:new 0 0 155 144;" xml:space="preserve">
<style type="text/css">
	.st0{fill:none;stroke:url(#SVGID_1_);stroke-width:8;stroke-miterlimit:10;}
	.st1{fill:url(#SVGID_2_);}
	.st2{opacity:0.4;}
	.st3{fill:#FFFFFF;}
</style>
<linearGradient id="SVGID_1_" gradientUnits="userSpaceOnUse" x1="33.7351" y1="61.3833" x2="135.4477" y2="61.3833">
	<stop  offset="0" style="stop-color:#9178A0"/>
	<stop  offset="0.54" style="stop-color:#8A95A8"/>
	<stop  offset="1" style="stop-color:#85AAAE"/>
</linearGradient>
<path class="st0" d="M66,41l9,14 M53,81l-18-6 M122,57l10-17L122,57z"/>
<linearGradient id="SVGID_2_" gradientUnits="userSpaceOnUse" x1="0.3429" y1="72" x2="154.7714" y2="72">
	<stop  offset="0" style="stop-color:#9178A0"/>
	<stop  offset="0.54" style="stop-color:#8A95A8"/>
	<stop  offset="1" style="stop-color:#85AAAE"/>
</linearGradient>
<path class="st1" d="M97.4,49c26.2,0,47.5,21.3,47.5,47.5S123.6,144,97.4,144s-47.5-21.3-47.5-47.5S71.2,49,97.4,49z M18.6,51.9
	c10.1,0,18.3,8.2,18.3,18.3s-8.2,18.3-18.3,18.3S0.3,80.3,0.3,70.2S8.5,51.9,18.6,51.9z M139.5,13.5c8.5,0,15.3,6.9,15.3,15.3
	s-6.9,15.3-15.3,15.3c-8.5,0-15.3-6.9-15.3-15.3S131,13.5,139.5,13.5z M57,0c12.2,0,22,9.9,22,22s-9.9,22-22,22s-22-9.9-22-22
	S44.9,0,57,0z"/>
<g class="st2">
	<path class="st3" d="M57,14.9c4,0,7.2,3.2,7.2,7.2S61,29.2,57,29.2S49.9,26,49.9,22S53.1,14.9,57,14.9 M57,6.9
		c-8.4,0-15.2,6.8-15.2,15.2c0,8.4,6.8,15.2,15.2,15.2c8.4,0,15.2-6.8,15.2-15.2C72.2,13.7,65.4,6.9,57,6.9L57,6.9z"/>
</g>
<g class="st2">
	<path class="st3" d="M18.6,66.3c2.2,0,3.9,1.8,3.9,3.9s-1.8,3.9-3.9,3.9s-3.9-1.8-3.9-3.9S16.5,66.3,18.6,66.3 M18.6,58.3
		c-6.6,0-11.9,5.3-11.9,11.9S12,82.1,18.6,82.1s11.9-5.3,11.9-11.9S25.2,58.3,18.6,58.3L18.6,58.3z"/>
</g>
<g class="st2">
	<path class="st3" d="M139.5,27.3c0.8,0,1.4,0.6,1.4,1.4s-0.6,1.4-1.4,1.4s-1.4-0.6-1.4-1.4S138.7,27.3,139.5,27.3 M139.5,19.3
		c-5.2,0-9.4,4.2-9.4,9.4c0,5.2,4.2,9.4,9.4,9.4s9.4-4.2,9.4-9.4C148.9,23.6,144.7,19.3,139.5,19.3L139.5,19.3z"/>
</g>
<g class="st2">
	<path class="st3" d="M97.4,65.1c17.3,0,31.4,14.1,31.4,31.4s-14.1,31.4-31.4,31.4S66,113.8,66,96.5S80.1,65.1,97.4,65.1 M97.4,57.1
		C75.6,57.1,58,74.7,58,96.5s17.7,39.4,39.4,39.4s39.4-17.7,39.4-39.4S119.2,57.1,97.4,57.1L97.4,57.1z"/>
</g>
</svg>
