<svg id="Layer_1" data-name="Layer 1" xmlns="http://www.w3.org/2000/svg" xmlns:xlink="http://www.w3.org/1999/xlink" viewBox="0 0 136.29 142.8"><defs><style>.cls-1{fill:url(#linear-gradient);}.cls-2{fill:none;stroke:#fff;stroke-linecap:round;stroke-linejoin:round;stroke-width:8px;opacity:0.4;}</style><linearGradient id="linear-gradient" x1="31.38" y1="75.6" x2="167.67" y2="75.6" gradientUnits="userSpaceOnUse"><stop offset="0" stop-color="#ba5291"/><stop offset="0.05" stop-color="#b75692"/><stop offset="0.39" stop-color="#a56c98"/><stop offset="0.71" stop-color="#9a799c"/><stop offset="1" stop-color="#967e9d"/></linearGradient></defs><path class="cls-1" d="M103.66,6.08c13,14.82,34.49,22.74,58.73,23.76a5.47,5.47,0,0,1,5.28,5.66c-2.49,51-38.34,111.5-68.14,111.5S33.88,86.48,31.39,35.5a5.46,5.46,0,0,1,5.28-5.66c24.24-1,45.75-8.94,58.73-23.76A5.49,5.49,0,0,1,103.66,6.08Z" transform="translate(-31.38 -4.2)"/><path class="cls-2" d="M109.28,80.35v21.13H89.77V80.35l0,0a16.25,16.25,0,1,1,19.5.07" transform="translate(-31.38 -4.2)"/></svg>