<?xml version="1.0" encoding="utf-8"?>
<!-- Generator: Adobe Illustrator 25.2.3, SVG Export Plug-In . SVG Version: 6.00 Build 0)  -->
<svg version="1.1" id="Layer_1" xmlns="http://www.w3.org/2000/svg" xmlns:xlink="http://www.w3.org/1999/xlink" x="0px" y="0px"
	 viewBox="0 0 500 500" style="enable-background:new 0 0 500 500;" xml:space="preserve">
<style type="text/css">
	.st0{opacity:0.4;fill:#FFFFFF;}
	.st1{fill:url(#SVGID_1_);}
	.st2{opacity:0.4;fill:#FFFFFF;enable-background:new    ;}
	
		.st3{opacity:0.4;fill:none;stroke:#FFFFFF;stroke-width:10;stroke-linecap:round;stroke-linejoin:round;enable-background:new    ;}
</style>
<rect class="st0" width="500" height="500"/>
<linearGradient id="SVGID_1_" gradientUnits="userSpaceOnUse" x1="165.9143" y1="234.75" x2="477.0857" y2="234.75" gradientTransform="matrix(1 0 0 -1 -71.5 529)">
	<stop  offset="0" style="stop-color:#B95191"/>
	<stop  offset="1" style="stop-color:#18B17F"/>
</linearGradient>
<path class="st1" d="M380.1,218.9c0,72-58.4,130.4-130.4,130.4c-172.9-6.9-172.9-253.9,0-260.8C321.8,88.5,380.1,146.9,380.1,218.9z
	 M405.6,500c-7.1-49.9-72.3-145.7-155.3-150.7h-0.5c-83,5.1-148.2,100.8-155.3,150.7"/>
<circle class="st2" cx="174.9" cy="221.4" r="21.9"/>
<circle class="st2" cx="324.6" cy="221.4" r="21.9"/>
<path class="st3" d="M229.4,251.5c4.5,11.5,17.5,17.2,29,12.7c5.8-2.3,10.5-6.9,12.7-12.7"/>
</svg>
