<svg id="Layer_1" data-name="Layer 1" xmlns="http://www.w3.org/2000/svg" xmlns:xlink="http://www.w3.org/1999/xlink" viewBox="0 0 134.23 141.63"><defs><style>.cls-1,.cls-2,.cls-3,.cls-4,.cls-5{stroke-linecap:round;stroke-linejoin:round;stroke-width:8px;}.cls-1{fill:url(#linear-gradient);stroke:url(#linear-gradient-2);}.cls-2,.cls-3,.cls-4,.cls-5{fill:none;}.cls-2{stroke:url(#linear-gradient-3);}.cls-3{stroke:url(#linear-gradient-4);}.cls-4{stroke:#fff;opacity:0.4;}.cls-5{stroke:url(#linear-gradient-5);}</style><linearGradient id="linear-gradient" x1="36" y1="75.82" x2="162.15" y2="75.82" gradientUnits="userSpaceOnUse"><stop offset="0" stop-color="#7da7a8"/><stop offset="0.58" stop-color="#5bb39c"/><stop offset="1" stop-color="#46ba94"/></linearGradient><linearGradient id="linear-gradient-2" x1="32" y1="75.82" x2="166.15" y2="75.82" xlink:href="#linear-gradient"/><linearGradient id="linear-gradient-3" x1="31.92" y1="75.82" x2="166.08" y2="75.82" xlink:href="#linear-gradient"/><linearGradient id="linear-gradient-4" x1="64.77" y1="74.43" x2="64.77" y2="74.43" xlink:href="#linear-gradient"/><linearGradient id="linear-gradient-5" x1="-12.38" y1="74.43" x2="-12.38" y2="74.43" gradientTransform="matrix(-1, 0, 0, 1, 121, 0)" xlink:href="#linear-gradient"/></defs><path class="cls-1" d="M99.08,11.36C84.19,5.82,69.31,10.25,62.54,22.42c-15.79,5.16-19,16.33-18.94,27.67-8.72,12.66-10.36,19.76-2.71,31-4.11,9.8.3,17.86,10.83,25.45-3.3,9.73,2.52,21.26,16.23,23.24,3.28,7.11,14.26,17,31.13,11.07Zm0,129.47c16.86,5.9,27.84-4,31.12-11.07,13.71-2,19.53-13.51,16.24-23.24,10.52-7.59,14.94-15.65,10.82-25.45,7.65-11.22,6-18.32-2.7-31,.09-11.34-3.16-22.51-18.95-27.67C128.85,10.25,114,5.82,99.08,11.36Z" transform="translate(-31.92 -5)"/><path class="cls-2" d="M99,11.36C84.12,5.82,69.23,10.25,62.46,22.42c-15.79,5.16-19,16.33-18.94,27.67-8.71,12.66-10.35,19.76-2.71,31-4.11,9.8.3,17.86,10.83,25.45-3.3,9.73,2.52,21.26,16.24,23.24,3.28,7.11,14.26,17,31.12,11.07Zm0,129.47c16.86,5.9,27.84-4,31.12-11.07,13.72-2,19.54-13.51,16.24-23.24,10.53-7.59,14.94-15.65,10.83-25.45,7.64-11.22,6-18.32-2.71-31,.09-11.34-3.15-22.51-18.94-27.67C128.77,10.25,113.88,5.82,99,11.36Z" transform="translate(-31.92 -5)"/><path class="cls-3" d="M64.77,74.43" transform="translate(-31.92 -5)"/><path class="cls-4" d="M93.54,71.11H75.84M46,101H65.88m0-79.68V41.23m19.92,99.6V101M39.32,63.36H59.24m91.85-13.27H133.38m-31,37.62h19.91M103.5,34.59h19.92m21,46.48v39.84m-23.24-5.54v19.92" transform="translate(-31.92 -5)"/><path class="cls-5" d="M133.38,74.43" transform="translate(-31.92 -5)"/></svg>