<svg id="Layer_1" data-name="Layer 1" xmlns="http://www.w3.org/2000/svg" xmlns:xlink="http://www.w3.org/1999/xlink" viewBox="0 0 151.32 143"><defs><style>.cls-1{stroke-miterlimit:10;fill:url(#linear-gradient);stroke:url(#linear-gradient-2);}.cls-1,.cls-3,.cls-4{stroke-width:8px;}.cls-2{fill:#fff;}.cls-2,.cls-3{opacity:0.4;}.cls-3{fill:none;stroke:#fff;}.cls-3,.cls-4{stroke-linecap:round;stroke-linejoin:round;}.cls-4{fill:url(#linear-gradient-3);stroke:url(#linear-gradient-3);}</style><linearGradient id="linear-gradient" x1="28.05" y1="75.5" x2="171.37" y2="75.5" gradientUnits="userSpaceOnUse"><stop offset="0" stop-color="#19b17f"/><stop offset="0.31" stop-color="#40ba91"/><stop offset="0.77" stop-color="#75c5a9"/><stop offset="1" stop-color="#8acab3"/></linearGradient><linearGradient id="linear-gradient-2" x1="24.05" x2="175.37" xlink:href="#linear-gradient"/><linearGradient id="linear-gradient-3" x1="95" y1="67" x2="95" y2="67" gradientUnits="userSpaceOnUse"><stop offset="0" stop-color="#7da7a8"/><stop offset="0.58" stop-color="#5bb39c"/><stop offset="1" stop-color="#46ba94"/></linearGradient></defs><path class="cls-1" d="M100.15,57.09V35.61m63.52,23H35.75a7.7,7.7,0,0,0-7.7,7.7v69a7.7,7.7,0,0,0,7.7,7.7H163.67a7.7,7.7,0,0,0,7.7-7.7v-69A7.7,7.7,0,0,0,163.67,58.63ZM100.15,8a12.28,12.28,0,1,0,12.28,12.27A12.27,12.27,0,0,0,100.15,8Z" transform="translate(-24.05 -4)"/><circle class="cls-2" cx="33.91" cy="87.61" r="16.11"/><circle class="cls-2" cx="118.29" cy="87.61" r="16.11"/><path class="cls-3" d="M87.88,110.78l12.27,7.67,12.28-7.67" transform="translate(-24.05 -4)"/><path class="cls-4" d="M95,67" transform="translate(-24.05 -4)"/></svg>