<svg id="Layer_1" data-name="Layer 1" xmlns="http://www.w3.org/2000/svg" xmlns:xlink="http://www.w3.org/1999/xlink" viewBox="0 0 448.5 336.09"><defs><style>.cls-1{fill:url(#linear-gradient);}.cls-2,.cls-3{fill:#fff;}.cls-2,.cls-5{stroke:#fff;}.cls-2,.cls-4{stroke-miterlimit:10;}.cls-2{stroke-width:8px;}.cls-2,.cls-3,.cls-5{opacity:0.4;}.cls-4,.cls-5{fill:none;}.cls-4{stroke:#000;}.cls-5{stroke-linecap:round;stroke-linejoin:round;stroke-width:15px;}</style><linearGradient id="linear-gradient" y1="142.33" x2="433.24" y2="142.33" gradientUnits="userSpaceOnUse"><stop offset="0" stop-color="#b64e8e"/><stop offset="1" stop-color="#12b17f"/></linearGradient></defs><rect class="cls-1" width="433.24" height="284.67"/><line class="cls-2" y1="29.97" x2="433.24" y2="29.97"/><path class="cls-3" d="M421.38,92.24A5.62,5.62,0,1,0,427,97.86,5.62,5.62,0,0,0,421.38,92.24Zm-18.72,0a5.62,5.62,0,1,0,5.61,5.62A5.62,5.62,0,0,0,402.66,92.24Zm-20,0a5.62,5.62,0,1,0,5.62,5.62A5.62,5.62,0,0,0,382.68,92.24Z" transform="translate(0 -86)"/><path class="cls-4" d="M390.17,283.89" transform="translate(0 -86)"/><path class="cls-4" d="M347.72,317.6" transform="translate(0 -86)"/><path class="cls-5" d="M441,414.59l-82.55-100.8m-38.78-6.46c13.65,10.11,27.37,11.47,38.65,6.57m.16-.12c7.21-10,8.84-23.66,1.92-39.16" transform="translate(0 -86)"/><line class="cls-5" x1="11.5" y1="49.5" x2="282.15" y2="49.5"/><line class="cls-5" x1="11.5" y1="84.37" x2="210.06" y2="84.37"/><line class="cls-5" x1="11.5" y1="119.25" x2="242.94" y2="119.25"/><line class="cls-5" x1="11.5" y1="154.12" x2="134.18" y2="154.12"/><line class="cls-5" x1="11.5" y1="189" x2="282.15" y2="189"/><line class="cls-5" x1="179.71" y1="154.12" x2="377" y2="154.12"/><line class="cls-5" x1="278.35" y1="119.25" x2="298.59" y2="119.25"/></svg>